<svg width="33" height="32" viewBox="0 0 33 32" fill="none" xmlns="http://www.w3.org/2000/svg">
<path d="M24.3516 14.5288C26.2116 14.2675 27.6436 12.6728 27.6476 10.7408C27.6476 8.83681 26.2596 7.25814 24.4396 6.95947" stroke="#252222" stroke-width="2" stroke-linecap="round" stroke-linejoin="round"/>
<path d="M26.8047 19.0005C28.606 19.2698 29.8634 19.9005 29.8634 21.2005C29.8634 22.0952 29.2714 22.6765 28.314 23.0418" stroke="#252222" stroke-width="2" stroke-linecap="round" stroke-linejoin="round"/>
<path fill-rule="evenodd" clip-rule="evenodd" d="M16.3496 19.5518C12.0643 19.5518 8.4043 20.2011 8.4043 22.7944C8.4043 25.3864 12.0416 26.0544 16.3496 26.0544C20.635 26.0544 24.2936 25.4118 24.2936 22.8171C24.2936 20.2224 20.6576 19.5518 16.3496 19.5518Z" stroke="#252222" stroke-width="2" stroke-linecap="round" stroke-linejoin="round"/>
<path fill-rule="evenodd" clip-rule="evenodd" d="M16.3498 15.8505C19.1618 15.8505 21.4418 13.5718 21.4418 10.7585C21.4418 7.9465 19.1618 5.6665 16.3498 5.6665C13.5378 5.6665 11.2579 7.9465 11.2579 10.7585C11.2472 13.5612 13.5099 15.8412 16.3125 15.8505H16.3498Z" stroke="#252222" stroke-width="2" stroke-linecap="round" stroke-linejoin="round"/>
<path d="M8.34678 14.5288C6.48545 14.2675 5.05478 12.6728 5.05078 10.7408C5.05078 8.83681 6.43878 7.25814 8.25878 6.95947" stroke="#252222" stroke-width="2" stroke-linecap="round" stroke-linejoin="round"/>
<path d="M5.89265 19.0005C4.09132 19.2698 2.83398 19.9005 2.83398 21.2005C2.83398 22.0952 3.42598 22.6765 4.38332 23.0418" stroke="#252222" stroke-width="2" stroke-linecap="round" stroke-linejoin="round"/>
</svg>
