<svg width="33" height="32" viewBox="0 0 33 32" fill="none" xmlns="http://www.w3.org/2000/svg">
<path fill-rule="evenodd" clip-rule="evenodd" d="M17.9723 5.56942L20.4089 10.4371C20.6477 10.915 21.1086 11.2463 21.6431 11.323L27.0938 12.1076C28.4405 12.302 28.9764 13.9341 28.0018 14.8693L24.0602 18.6567C23.6729 19.0291 23.4966 19.5645 23.5882 20.0903L24.5184 25.4372C24.7475 26.7599 23.3397 27.769 22.136 27.1433L17.2643 24.617C16.7867 24.3692 16.2147 24.3692 15.7357 24.617L10.864 27.1433C9.66031 27.769 8.25253 26.7599 8.48299 25.4372L9.41179 20.0903C9.50343 19.5645 9.32711 19.0291 8.93976 18.6567L4.99824 14.8693C4.02362 13.9341 4.55952 12.302 5.90622 12.1076L11.3569 11.323C11.8914 11.2463 12.3537 10.915 12.5925 10.4371L15.0277 5.56942C15.6302 4.36586 17.3698 4.36586 17.9723 5.56942Z" stroke="#252222" stroke-width="2" stroke-linecap="round" stroke-linejoin="round"/>
</svg>
