<svg width="41" height="40" viewBox="0 0 41 40" fill="none" xmlns="http://www.w3.org/2000/svg">
<g clip-path="url(#clip0_1167_72785)">
<path d="M40.5 20C40.5 8.9543 31.5457 0 20.5 0C9.4543 0 0.5 8.9543 0.5 20C0.5 29.9824 7.81367 38.2566 17.375 39.757V25.7813H12.2969V20H17.375V15.5938C17.375 10.5813 20.3609 7.8125 24.9293 7.8125C27.1168 7.8125 29.4062 8.20312 29.4062 8.20312V13.125H26.8844C24.4 13.125 23.625 14.6668 23.625 16.25V20H29.1719L28.2852 25.7813H23.625V39.757C33.1863 38.2566 40.5 29.9824 40.5 20Z" fill="#252222"/>
</g>
<defs>
<clipPath id="clip0_1167_72785">
<rect width="40" height="40" fill="white" transform="translate(0.5)"/>
</clipPath>
</defs>
</svg>
