<svg width="41" height="42" viewBox="0 0 41 42" fill="none" xmlns="http://www.w3.org/2000/svg">
<path fill-rule="evenodd" clip-rule="evenodd" d="M31.69 0.859375C36.6335 0.859375 40.641 4.8669 40.641 9.81042V32.188C40.641 37.1316 36.6335 41.1391 31.69 41.1391H9.31238C4.36885 41.1391 0.361328 37.1316 0.361328 32.188V9.81042C0.361328 4.8669 4.36885 0.859375 9.31238 0.859375H31.69ZM20.4985 9.81032C14.319 9.81032 9.30965 14.8197 9.30965 20.9991C9.30965 27.1785 14.319 32.1879 20.4985 32.1879C26.6779 32.1879 31.6873 27.1785 31.6873 20.9991C31.6873 14.8197 26.6779 9.81032 20.4985 9.81032ZM20.5002 14.2852C24.2078 14.2852 27.2134 17.2908 27.2134 20.9984C27.2134 24.7061 24.2078 27.7117 20.5002 27.7117C16.7925 27.7117 13.7869 24.7061 13.7869 20.9984C13.7869 17.2908 16.7925 14.2852 20.5002 14.2852ZM33.9272 5.33594C32.6913 5.33594 31.6895 6.33782 31.6895 7.5737C31.6895 8.80958 32.6913 9.81146 33.9272 9.81146C35.1631 9.81146 36.165 8.80958 36.165 7.5737C36.165 6.33782 35.1631 5.33594 33.9272 5.33594Z" fill="#252222"/>
</svg>
