<svg width="41" height="40" viewBox="0 0 41 40" fill="none" xmlns="http://www.w3.org/2000/svg">
<path d="M25.2134 19.9999L27.5704 22.357L32.2845 17.6429C34.888 15.0394 34.888 10.8183 32.2845 8.21483C29.681 5.61133 25.4599 5.61133 22.8564 8.21483L18.1424 12.9289L20.4994 15.2859L25.2134 10.5719C26.5152 9.2701 28.6257 9.2701 29.9275 10.5719C31.2292 11.8736 31.2292 13.9841 29.9275 15.2859L25.2134 19.9999Z" fill="#252222"/>
<path d="M20.4995 24.7141L22.8565 27.0711L18.1424 31.7852C15.5389 34.3887 11.3178 34.3887 8.71434 31.7852C6.11085 29.1817 6.11084 24.9606 8.71434 22.3571L13.4284 17.643L15.7854 20.0001L11.0714 24.7141C9.76962 26.0159 9.76962 28.1264 11.0714 29.4282C12.3731 30.7299 14.4837 30.7299 15.7854 29.4282L20.4995 24.7141Z" fill="#252222"/>
<path d="M25.2135 17.6428C25.8644 16.9919 25.8644 15.9367 25.2135 15.2858C24.5626 14.6349 23.5073 14.6349 22.8565 15.2858L15.7854 22.3568C15.1345 23.0077 15.1345 24.063 15.7854 24.7139C16.4363 25.3647 17.4916 25.3647 18.1424 24.7139L25.2135 17.6428Z" fill="#252222"/>
</svg>
